<svg xmlns="http://www.w3.org/2000/svg" xmlns:xlink="http://www.w3.org/1999/xlink" width="245" height="80" viewBox="0 0 245 80"><defs><clipPath id="a"><rect width="245" height="80" transform="translate(-15053 740)" fill="#fff" stroke="#707070" stroke-width="1"/></clipPath><clipPath id="b"><rect width="178" height="31" transform="translate(-0.269 0.17)" fill="#fff" stroke="#707070" stroke-width="1"/></clipPath></defs><g transform="translate(15053 -740)" clip-path="url(#a)"><g transform="translate(-15049 747.148)"><g transform="translate(0)"><circle cx="27" cy="27" r="27" transform="translate(0 -0.148)" fill="#4b8ce8"/><g transform="translate(60.269 16.682)" clip-path="url(#b)"><path d="M63.321,25.937c0,11.2,0,10.716.548,11.02a2.51,2.51,0,0,0,1.766-.061c.487-.3.487-.548.487-4.323V29.042H69.47c5.236,0,6.028-.3,7.124-2.435l.365-.67V18.631l-.3-.67a4.638,4.638,0,0,0-1.766-1.827c-.974-.487-.974-.487-6.393-.487H63.321v10.29m79.334.426V37.14l4.566-.061,4.566-.061.792-.3c2.557-.913,3.714-2.618,3.714-5.723a5.714,5.714,0,0,0-1.279-4.2l-.426-.548.426-.487c1.887-2.131,1.7-6.88-.426-8.828-1.4-1.279-2.07-1.4-7.611-1.4h-4.384l.061,10.838m43.472-8.585c-.609.3-.731.67-.731,2.557V22.1h-.67c-1.339,0-2.009.487-2.009,1.4,0,.974.487,1.339,1.827,1.339h.913v4.445c0,5.419,0,5.48,1.1,6.576a3.224,3.224,0,0,0,1.644.974,15.924,15.924,0,0,0,4.81,0c2.74-.792,3.958-4.81,1.4-4.81a1.462,1.462,0,0,0-1.461,1.339c0,.67-1.34,1.035-3.166.852-1.644-.183-1.583-.061-1.583-5.3v-4.2h2.679c3.227,0,3.653-.122,3.653-1.339,0-1.157-.67-1.4-3.836-1.4h-2.435V20.4c0-1.766-.061-2.192-.426-2.557a2.748,2.748,0,0,0-1.7-.061m-112.76.852c.731.3.792.548.792,3.653,0,4.14.365,3.836-4.506,3.836l-3.531.061V18.448h3.41c2.983,0,3.47.061,3.836.183m78.238,0c2.314.731,2.679,4.81.487,6.028-.3.183-.67.183-3.47.244h-3.105V18.448h2.8a13.5,13.5,0,0,1,3.288.183M84.266,22.284c-.731.3-.67,0-.731,7-.061,7.793-.061,7.672,1.1,7.854,1.461.183,1.583-.061,1.583-4.749l.061-3.775,1.948-1.644c2.435-2.009,2.5-2.009,3.592-2.009,1.4,0,1.948.365,1.948,1.461,0,1.4,1.035,2.192,2.07,1.7,1.1-.548.913-3.288-.3-4.688-.852-.974-1.766-1.279-3.836-1.279-1.948,0-2.192.122-4.323,1.887l-1.035.852-.061-.852c-.122-1.583-.913-2.253-2.009-1.766m23.015,0a8.423,8.423,0,0,0-3.592,2.923c-.365.609-.426,8.1-.061,8.828a9.85,9.85,0,0,0,2.922,2.8,47,47,0,0,0,9.255,0,1.431,1.431,0,0,0,.426-1.887c-.3-.548-.487-.609-4.566-.609-4.323-.061-4.079,0-4.993-1.035-.548-.548-.548-.609-.548-1.218v-.609h4.688c6.089,0,5.6.3,5.541-3.47-.061-2.983-.122-3.044-1.948-4.566a5.189,5.189,0,0,0-2.253-1.279,32.345,32.345,0,0,0-4.871.122m16.683,0c-.792.365-.731-.548-.731,10.046-.061,10.472-.061,9.924.609,10.29a1.805,1.805,0,0,0,1.583-.122c.426-.365.426-.609.487-3.714l.061-2.983.792.731c1.157,1.1,1.339,1.157,3.044,1.157,1.766,0,1.583.122,3.9-1.7,2.5-1.948,2.618-2.253,2.618-5.967s-.183-4.14-2.131-5.662c-.548-.426-1.1-.852-1.157-.913a4.168,4.168,0,0,0-3.166-1.218c-1.461,0-2.009.244-3.531,1.7l-.3.3-.061-.426c-.183-1.4-1.035-1.948-2.009-1.522m39.637,0c-.609.3-.731.67-.731,2.253A5.158,5.158,0,0,0,163.6,27.7c.183.426.365.792.365.792,0,.061.548,1.218.974,2.131.122.3.365.792.487,1.1a9.93,9.93,0,0,0,.548,1.157,8.626,8.626,0,0,1,.487,1.1c.122.3.3.731.426.974.3.67.548.913,1.035.974s.548-.122-.3,1.644c-.426.792-.792,1.7-.913,1.887l-.183.426h-1.1c-1.948,0-2.5.3-2.5,1.339,0,1.157.487,1.339,2.983,1.339,2.618,0,2.375.244,4.262-3.958.426-.913.609-1.4,1.339-2.983l.609-1.339c.791-1.7.974-2.07,1.157-2.557.3-.731.852-1.827,1.218-2.618.183-.365.548-1.218.852-1.887l.548-1.157V24.476c0-1.948-.3-2.557-1.279-2.557-1.035,0-1.4.548-1.4,2.131a3.156,3.156,0,0,1-.3,1.827c-.183.365-.3.67-.3.67l-.487,1.1-.487,1.1c0,.061-.426.913-.913,2.009-.609,1.339-.792,1.766-.913,2.009a.334.334,0,0,1-.365.244c-.244,0-.3-.061-.974-1.522-.122-.3-.426-.913-.609-1.339-.548-1.218-.913-2.009-1.4-3.105-.244-.548-.548-1.218-.67-1.4a3.191,3.191,0,0,1-.183-1.522c0-1.644-.731-2.435-2.009-1.827m42.924,0a5.627,5.627,0,0,0-2.192,1.4c-1.766,1.522-1.827,1.7-1.766,6.637.061,4.2-.061,3.836,1.887,5.6,1.461,1.279.974,1.218,5.906,1.218,5.114,0,5.3-.061,5.3-1.4,0-1.218-.244-1.279-4.688-1.339-4.262-.061-4.079,0-4.932-.913a2.032,2.032,0,0,1-.731-1.522v-.426h4.749c6.149,0,5.6.3,5.6-3.227V25.937l-.3-.67c-.365-.731-.548-.913-1.948-2.009-1.34-1.035-1.522-1.1-4.2-1.1a12.973,12.973,0,0,0-2.679.122m18.935,0c-1.1.3-2.192,1.157-2.314,1.887a.526.526,0,0,1-.183.365c-.487.3.061,2.74.731,3.41a6.345,6.345,0,0,0,2.192,1.279c.365.183.974.426,1.339.609s.913.426,1.1.487c4.2,1.827,4.627,2.192,4.14,3.288-.3.67-.487.731-3.775.731-3.227,0-3.41-.061-3.958-.67a1.451,1.451,0,0,0-2.07.122l-.122.122c-.609.913.183,2.07,1.887,2.862l.548.244H228.5c3.653,0,4.018-.061,4.932-.487a4.07,4.07,0,0,0,.913-6.21,4.337,4.337,0,0,0-1.644-1.1l-1.7-.792c-.487-.244-.913-.426-.913-.426s-.365-.183-.792-.365l-1.522-.731c-.426-.183-1.035-.487-1.279-.548-.67-.3-.974-.548-.974-.913,0-.548.3-.67,2.862-.67,2.983-.061,3.47.061,4.262.67,1.583,1.279,3.41-.548,2.009-1.948-1.461-1.4-1.7-1.461-5.723-1.461a33.236,33.236,0,0,0-3.47.244m-113.552,2.8a2.634,2.634,0,0,1,1.7,2.679V28.8h-7.489V27.581c0-1.4,0-1.339,1.157-2.131a7.091,7.091,0,0,1,4.627-.365m18.448-.061a2.468,2.468,0,0,1,.548.3,12.809,12.809,0,0,0,1.218.974c1.461,1.157,1.522,1.279,1.461,3.836-.061,2.192,0,2.131-1.218,3.105a9.107,9.107,0,0,0-.792.67c-1.644,1.461-1.948,1.4-4.14-.67-1.522-1.4-1.461-1.339-1.461-3.349,0-1.948.061-2.07.852-2.8.3-.244.852-.792,1.279-1.218,1.1-1.035,1.461-1.157,2.253-.852m80.8.061a4.078,4.078,0,0,1,.974.731l.67.609.061,1.218.061,1.218h-7.672l.061-1.157c.061-1.339.122-1.522.852-2.009a3.344,3.344,0,0,0,.548-.426c.244-.426,3.653-.548,4.445-.183m-59,3.044c1.7.974,1.887,4.566.244,5.6-.731.487-1.461.548-4.262.548h-2.618V27.764l3.044.061,3.044.061.548.244M0,0" transform="translate(-60.269 -13.766)" fill="#4c8cec" fill-rule="evenodd"/></g></g><path d="M.21-.15C.18-.06.21,0,.315,0H2.28a.181.181,0,0,0,.195-.15l.57-1.785h3.57L7.2-.15A.181.181,0,0,0,7.4,0h1.95c.105,0,.135-.06.105-.15L6-10.05a.194.194,0,0,0-.195-.15H3.915a.194.194,0,0,0-.195.15ZM3.66-3.81,4.815-7.38H4.86L6.015-3.81ZM14.19-2.34A3.51,3.51,0,0,0,17.82.165,3.588,3.588,0,0,0,21.375-2.1a.116.116,0,0,0-.075-.18l-1.635-.735a.143.143,0,0,0-.21.075,1.681,1.681,0,0,1-1.62,1.155,1.5,1.5,0,0,1-1.53-1.125A6.991,6.991,0,0,1,16.14-5.1a6.991,6.991,0,0,1,.165-2.19,1.5,1.5,0,0,1,1.53-1.125,1.681,1.681,0,0,1,1.62,1.155.143.143,0,0,0,.21.075L21.3-7.92a.116.116,0,0,0,.075-.18,3.588,3.588,0,0,0-3.555-2.265A3.51,3.51,0,0,0,14.19-7.86,7.678,7.678,0,0,0,13.9-5.1,7.678,7.678,0,0,0,14.19-2.34ZM25.8.165a3.06,3.06,0,0,0,3.15-2.04,5.515,5.515,0,0,0,.24-1.755,5.515,5.515,0,0,0-.24-1.755,3.06,3.06,0,0,0-3.15-2.04,3.06,3.06,0,0,0-3.15,2.04,5.515,5.515,0,0,0-.24,1.755,5.515,5.515,0,0,0,.24,1.755A3.06,3.06,0,0,0,25.8.165Zm0-1.77a1.094,1.094,0,0,1-1.125-.78A3.793,3.793,0,0,1,24.54-3.63a3.793,3.793,0,0,1,.135-1.245,1.094,1.094,0,0,1,1.125-.78,1.094,1.094,0,0,1,1.125.78A3.793,3.793,0,0,1,27.06-3.63a3.793,3.793,0,0,1-.135,1.245A1.094,1.094,0,0,1,25.8-1.605ZM33.735.09a.142.142,0,0,0,.15-.15V-1.545a.142.142,0,0,0-.15-.15H33.42c-.435,0-.63-.195-.63-.69V-10.05a.142.142,0,0,0-.15-.15h-1.8a.142.142,0,0,0-.15.15v7.83c0,1.605.645,2.31,2.25,2.31Zm4.5,0a.142.142,0,0,0,.15-.15V-1.545a.142.142,0,0,0-.15-.15H37.92c-.435,0-.63-.195-.63-.69V-10.05a.142.142,0,0,0-.15-.15h-1.8a.142.142,0,0,0-.15.15v7.83c0,1.605.645,2.31,2.25,2.31Zm4.65.075a4.146,4.146,0,0,0,3.09-1.215.135.135,0,0,0-.015-.21l-.99-.93c-.06-.075-.135-.06-.21,0a2.333,2.333,0,0,1-1.665.645,1.427,1.427,0,0,1-1.5-.96,1.607,1.607,0,0,1-.09-.4A.08.08,0,0,1,41.6-3h4.4a.146.146,0,0,0,.165-.15,6.961,6.961,0,0,0-.24-2.235,3.033,3.033,0,0,0-3.135-2.04A3.039,3.039,0,0,0,39.66-5.37a5.32,5.32,0,0,0-.24,1.74,5.235,5.235,0,0,0,.255,1.725A3.08,3.08,0,0,0,42.885.165ZM41.6-4.395a.08.08,0,0,1-.09-.09,1.8,1.8,0,0,1,.075-.54,1.2,1.2,0,0,1,1.215-.8,1.2,1.2,0,0,1,1.215.8,1.8,1.8,0,0,1,.075.54.08.08,0,0,1-.09.09Zm8.73,7.26c2.385,0,3.615-1.215,3.615-3.645V-7.11a.142.142,0,0,0-.15-.15h-1.8a.142.142,0,0,0-.15.15v.525h-.015a2.058,2.058,0,0,0-1.86-.84,2.376,2.376,0,0,0-2.43,1.755,5.658,5.658,0,0,0-.24,1.815,5.721,5.721,0,0,0,.24,1.815,2.376,2.376,0,0,0,2.43,1.755,2.058,2.058,0,0,0,1.86-.84h.015V-.51c0,1.065-.45,1.605-1.455,1.605a2.179,2.179,0,0,1-1.5-.63.141.141,0,0,0-.225,0L47.6,1.545a.151.151,0,0,0-.015.225A3.812,3.812,0,0,0,50.325,2.865Zm.3-4.92a1.042,1.042,0,0,1-1.08-.78,3.643,3.643,0,0,1-.12-1.02,3.643,3.643,0,0,1,.12-1.02,1.042,1.042,0,0,1,1.08-.78,1.02,1.02,0,0,1,1.08.78,3.1,3.1,0,0,1,.135,1.02,3.1,3.1,0,0,1-.135,1.02A1.02,1.02,0,0,1,50.625-2.055Zm8.31,2.22a4.146,4.146,0,0,0,3.09-1.215.135.135,0,0,0-.015-.21l-.99-.93c-.06-.075-.135-.06-.21,0a2.333,2.333,0,0,1-1.665.645,1.427,1.427,0,0,1-1.5-.96,1.607,1.607,0,0,1-.09-.4.08.08,0,0,1,.09-.09H62.04a.146.146,0,0,0,.165-.15,6.961,6.961,0,0,0-.24-2.235,3.033,3.033,0,0,0-3.135-2.04A3.039,3.039,0,0,0,55.71-5.37a5.32,5.32,0,0,0-.24,1.74,5.235,5.235,0,0,0,.255,1.725A3.08,3.08,0,0,0,58.935.165Zm-1.29-4.56a.08.08,0,0,1-.09-.09,1.8,1.8,0,0,1,.075-.54,1.2,1.2,0,0,1,1.215-.8,1.2,1.2,0,0,1,1.215.8,1.8,1.8,0,0,1,.075.54.08.08,0,0,1-.09.09ZM63.765-.15a.142.142,0,0,0,.15.15H67.71a3.337,3.337,0,0,0,3.525-2.3,8.621,8.621,0,0,0,.27-2.8,8.621,8.621,0,0,0-.27-2.805A3.337,3.337,0,0,0,67.71-10.2H63.915a.142.142,0,0,0-.15.15ZM65.97-2.055v-6.09a.08.08,0,0,1,.09-.09h1.155c1.02,0,1.635.3,1.89,1.125A6.242,6.242,0,0,1,69.27-5.1a6.242,6.242,0,0,1-.165,2.01c-.255.825-.87,1.125-1.89,1.125H66.06A.08.08,0,0,1,65.97-2.055ZM76.29.165A4.146,4.146,0,0,0,79.38-1.05a.135.135,0,0,0-.015-.21l-.99-.93c-.06-.075-.135-.06-.21,0a2.333,2.333,0,0,1-1.665.645,1.427,1.427,0,0,1-1.5-.96,1.607,1.607,0,0,1-.09-.4A.08.08,0,0,1,75-3h4.395a.146.146,0,0,0,.165-.15,6.961,6.961,0,0,0-.24-2.235,3.033,3.033,0,0,0-3.135-2.04,3.039,3.039,0,0,0-3.12,2.055,5.321,5.321,0,0,0-.24,1.74,5.235,5.235,0,0,0,.255,1.725A3.08,3.08,0,0,0,76.29.165ZM75-4.395a.08.08,0,0,1-.09-.09,1.8,1.8,0,0,1,.075-.54,1.2,1.2,0,0,1,1.215-.8,1.2,1.2,0,0,1,1.215.8,1.8,1.8,0,0,1,.075.54.08.08,0,0,1-.09.09ZM87.78,0a.091.091,0,0,0,.075-.15l-2.535-4.4L87.54-7.11a.084.084,0,0,0-.06-.15H85.56a.343.343,0,0,0-.285.15L83.19-4.545V-10.05a.142.142,0,0,0-.15-.15h-1.8a.142.142,0,0,0-.15.15v9.9a.142.142,0,0,0,.15.15h1.8a.142.142,0,0,0,.15-.15V-2.145l.75-.93L85.56-.15a.237.237,0,0,0,.225.15Zm7.59,0a.142.142,0,0,0,.15-.15V-4.725a2.4,2.4,0,0,0-2.475-2.7A2.228,2.228,0,0,0,91.17-6.6h-.015v-3.45A.142.142,0,0,0,91-10.2H89.2a.142.142,0,0,0-.15.15v9.9A.142.142,0,0,0,89.2,0H91a.142.142,0,0,0,.15-.15V-4.32c0-.8.42-1.32,1.14-1.32.75,0,1.125.525,1.125,1.32V-.15a.142.142,0,0,0,.15.15Zm5.01.165a3.06,3.06,0,0,0,3.15-2.04,5.515,5.515,0,0,0,.24-1.755,5.515,5.515,0,0,0-.24-1.755,3.06,3.06,0,0,0-3.15-2.04,3.06,3.06,0,0,0-3.15,2.04,5.515,5.515,0,0,0-.24,1.755,5.515,5.515,0,0,0,.24,1.755A3.06,3.06,0,0,0,100.38.165Zm0-1.77a1.094,1.094,0,0,1-1.125-.78A3.793,3.793,0,0,1,99.12-3.63a3.793,3.793,0,0,1,.135-1.245,1.094,1.094,0,0,1,1.125-.78,1.094,1.094,0,0,1,1.125.78,3.793,3.793,0,0,1,.135,1.245,3.793,3.793,0,0,1-.135,1.245A1.094,1.094,0,0,1,100.38-1.605Zm8.5-.735a3.51,3.51,0,0,0,3.63,2.505A3.588,3.588,0,0,0,116.07-2.1a.116.116,0,0,0-.075-.18l-1.635-.735a.143.143,0,0,0-.21.075,1.681,1.681,0,0,1-1.62,1.155A1.5,1.5,0,0,1,111-2.91a6.991,6.991,0,0,1-.165-2.19A6.991,6.991,0,0,1,111-7.29a1.5,1.5,0,0,1,1.53-1.125,1.681,1.681,0,0,1,1.62,1.155.143.143,0,0,0,.21.075l1.635-.735a.116.116,0,0,0,.075-.18,3.588,3.588,0,0,0-3.555-2.265,3.51,3.51,0,0,0-3.63,2.505A7.678,7.678,0,0,0,108.6-5.1,7.678,7.678,0,0,0,108.885-2.34ZM120.495.165a3.06,3.06,0,0,0,3.15-2.04,5.515,5.515,0,0,0,.24-1.755,5.515,5.515,0,0,0-.24-1.755,3.06,3.06,0,0,0-3.15-2.04,3.06,3.06,0,0,0-3.15,2.04,5.515,5.515,0,0,0-.24,1.755,5.515,5.515,0,0,0,.24,1.755A3.06,3.06,0,0,0,120.495.165Zm0-1.77a1.094,1.094,0,0,1-1.125-.78,3.793,3.793,0,0,1-.135-1.245,3.793,3.793,0,0,1,.135-1.245,1.094,1.094,0,0,1,1.125-.78,1.094,1.094,0,0,1,1.125.78,3.793,3.793,0,0,1,.135,1.245,3.793,3.793,0,0,1-.135,1.245A1.094,1.094,0,0,1,120.495-1.605ZM136.095,0a.142.142,0,0,0,.15-.15V-4.725a2.433,2.433,0,0,0-2.595-2.7,2.962,2.962,0,0,0-2.28.915h-.015a2.221,2.221,0,0,0-1.95-.915,2.228,2.228,0,0,0-1.875.825h-.015v-.51a.142.142,0,0,0-.15-.15h-1.8a.142.142,0,0,0-.15.15V-.15a.142.142,0,0,0,.15.15h1.8a.142.142,0,0,0,.15-.15V-4.32c0-.8.42-1.32,1.14-1.32.75,0,1.125.525,1.125,1.32V-.15a.142.142,0,0,0,.15.15h1.8a.142.142,0,0,0,.15-.15V-4.32c0-.8.4-1.32,1.125-1.32.75,0,1.14.525,1.14,1.32V-.15a.142.142,0,0,0,.15.15Zm3.93,2.7a.142.142,0,0,0,.15-.15V-.675h.015a2.143,2.143,0,0,0,1.9.84,2.4,2.4,0,0,0,2.46-1.74,6.36,6.36,0,0,0,.255-2.055,6.3,6.3,0,0,0-.255-2.055,2.387,2.387,0,0,0-2.46-1.74,2.143,2.143,0,0,0-1.9.84h-.015V-7.11a.142.142,0,0,0-.15-.15h-1.8a.142.142,0,0,0-.15.15V2.55a.142.142,0,0,0,.15.15Zm1.395-4.305a1.076,1.076,0,0,1-1.11-.78,3.924,3.924,0,0,1-.135-1.245,3.924,3.924,0,0,1,.135-1.245,1.061,1.061,0,0,1,1.11-.78,1.067,1.067,0,0,1,1.125.78,3.924,3.924,0,0,1,.135,1.245,3.924,3.924,0,0,1-.135,1.245A1.083,1.083,0,0,1,141.42-1.605ZM152.265,0a.142.142,0,0,0,.15-.15V-4.8c0-1.815-.855-2.625-3.225-2.625a4.6,4.6,0,0,0-2.7.72.145.145,0,0,0-.045.21l.675,1.185a.12.12,0,0,0,.195.03,2.7,2.7,0,0,1,1.62-.465c1.155,0,1.485.315,1.485.99v.27a.08.08,0,0,1-.09.09h-1.29c-1.8,0-3.015.735-3.015,2.34A2.161,2.161,0,0,0,148.44.165a2.37,2.37,0,0,0,1.995-.8h.015v.48a.142.142,0,0,0,.15.15ZM149.07-1.41c-.69,0-1.05-.255-1.05-.765,0-.57.4-.825,1.29-.825h1.02a.08.08,0,0,1,.09.09v.495C150.42-1.74,149.97-1.41,149.07-1.41ZM160.575,0a.142.142,0,0,0,.15-.15V-4.725a2.4,2.4,0,0,0-2.475-2.7,2.228,2.228,0,0,0-1.875.825h-.015v-.51a.142.142,0,0,0-.15-.15h-1.8a.142.142,0,0,0-.15.15V-.15a.142.142,0,0,0,.15.15h1.8a.142.142,0,0,0,.15-.15V-4.32c0-.8.42-1.32,1.14-1.32.75,0,1.125.525,1.125,1.32V-.15a.142.142,0,0,0,.15.15Zm2.94,2.7c1.305,0,1.95-.48,2.565-2.085l2.94-7.725c.03-.09-.015-.15-.12-.15h-1.86a.19.19,0,0,0-.18.15l-1.35,4.2h-.03l-1.455-4.2a.19.19,0,0,0-.18-.15h-1.92c-.09,0-.15.06-.12.15l2.7,6.75-.2.54a.924.924,0,0,1-.99.75H163a.142.142,0,0,0-.15.15V2.55a.142.142,0,0,0,.15.15Z" transform="translate(61 61.852)" fill="#f17900" stroke="rgba(0,0,0,0)" stroke-width="1"/><g transform="translate(11.554 15.774)"><path d="M41.453,36.559c.061,9.133,0,8.463.852,10.229,3.531,7.245,14.552,4.871,15.039-3.166a7.923,7.923,0,0,0-7.55-8.341,8.1,8.1,0,0,0-5.114,1.583l-.609.426V28.4H41.514l-.061,8.159M29.032,28.887a8.188,8.188,0,0,0-5.48,4.323c-.852,1.7-.852,2.192-.852,10.959v7.245h2.557V47.031c0-2.435,0-4.384.061-4.384.183.122.426.244.609.365a7.946,7.946,0,0,0,9.681-12.6,7.78,7.78,0,0,0-6.576-1.522m2.923,2.5a5.266,5.266,0,1,1-1.339-.183,5.071,5.071,0,0,1,1.339.183m18.875,6.576a5.4,5.4,0,1,1-1.1-.183,3.448,3.448,0,0,1,1.1.183" transform="translate(-22.7 -28.4)" fill="#fbfbfb" fill-rule="evenodd"/></g></g></g></svg>